<?xml version="1.0" encoding="UTF-8"?>
<svg width="1200pt" height="1200pt" version="1.1" viewBox="0 0 1200 1200" xmlns="http://www.w3.org/2000/svg">
 <path d="m305.1 0.14844c-32.141 1.9844-63.77 9.4648-93.242 22.23-127.03 55.008-192.5 203.28-134.01 329.07 51.676 111.14 189.42 168.27 305.8 115.94 101.51-45.645 153.7-165.68 104.56-266.63-42.18-86.652-151.44-130.87-242.67-87.449-76.746 36.531-115.78 129.18-75.555 206.02 32.965 62.977 114.64 95.008 181.54 59.945 52.922-27.73 79.629-94.449 47.539-148.09-24.141-40.352-80.102-60.797-123.68-32.922-15.199 9.7227-26.109 24.605-30.691 41.562-4.5859 16.961-2.1055 37.027 10.988 52.695 15.949 19.645 46.039-4.1367 29.555-23.363-4.9258-5.8945-5.7773-12.34-3.6992-20.031s7.8359-15.648 14.688-20.031c23.328-14.922 55.902-2.8203 69.988 20.727 20.312 33.953 2.375 78.438-32.852 96.895-46.723 24.484-105.75 1.2461-129.54-44.199-29.961-57.242-0.070313-128.16 58.414-156 71.121-33.852 158.09 1.375 191.54 70.09 39.621 81.402-3.0625 180.01-85.992 217.3-96.324 43.312-212.02-4.6914-255.23-97.629-49.418-106.28 6.4766-233.23 114.71-280.11 25.277-10.949 52.621-17.48 80.277-19.188 25.098-0.88672 24.082-37.422-1.0234-36.984-0.49219 0.035156-0.95312 0.074219-1.4297 0.14453zm866.41 2.5664c-204.19 118.7-279.27 228.87-285.26 336.57-5.9961 106.67 57.262 204.2 107.53 290.91 52.188 90.027 95.488 168.27 72.004 255.79-24.531 84.418-119.07 175.71-360.74 277.95-22.688 10.246-8.1133 43.75 14.648 34.461 245.86-104.01 352.85-201.35 382.06-301.86 29.207-100.51-23.152-195.76-76.141-286.33-52.988-90.574-107.09-178.09-102-268.83 5.0938-90.734 68.805-190.89 266.73-306.14 17.441-9.4961 9.6992-36.832-10.512-35.156-2.9336 0.21484-5.7891 1.1211-8.3125 2.6367zm-421.43 109.79c-31.285 0-56.328 25.477-56.328 56.32s25.113 56.176 56.328 56.176c31.211 0 56.18-25.332 56.18-56.176s-24.895-56.32-56.18-56.32zm0 37.5c10.211 0 18.68 8.2461 18.68 18.824s-8.5391 18.676-18.68 18.676-18.824-8.0977-18.824-18.676 8.6133-18.824 18.824-18.824zm337.89 159.19c-16.992-0.42578-25.707 20.199-13.586 32.113l14.832 14.867-14.906 14.906c-17.727 17.723 8.8633 44.309 26.59 26.586l14.832-14.906 14.867 14.906c17.727 17.723 44.312-8.8633 26.59-26.586l-14.941-14.906 14.832-14.867c12.105-11.902 3.4219-32.477-13.551-32.113-4.8672 0.14062-9.4961 2.1836-12.891 5.6758l-14.906 14.867-14.906-14.867c-3.3867-3.4883-7.9961-5.5195-12.855-5.6758zm-469.23 84.586c-30.84 0-56.18 24.754-56.18 56.176v115.9c-27.039 4.918-57.496 19.098-84.453 34.973-26.773 15.766-53.156 35.012-75.48 55.113l-382.94-18.457c-25.027-1.1992-26.82 36.34-1.793 37.535l358.07 17.211c2.0547 13.613 20.055 23.809 32.523 10.328 22.234-23.898 55.629-49.73 88.59-69.359 35.645-21.227 66.648-31.824 84.234-31.824 2.5586 0.49609 2.7227 0.49609 7.6914 2.3438 4.9688 1.8438 11.535 4.7344 18.824 8.3125 14.582 7.1602 32.27 16.961 49.148 26.844 33.762 19.766 64.496 39.734 64.496 39.734 9.7578 6.0938 12.621 17.891 7.6172 26.035-2.6211 4.543-5.875 6.2578-10.328 7.3242-4.7461 1.0625-11.309 0.56641-18.457-1.9414l-93.867-32.52c-8.457-2.8984-17.77 0.56641-22.266 8.3125 0 0-32.32 53.059-82.367 66.281-24.539 6.1523-14.828 42.984 9.5586 36.254 20.699-5.4727 38.055-15.375 51.199-25.047v249.12h-45.961c-33.547 0-79.457-16.469-107.12-42.48-3.6562-3.543-8.6055-5.4492-13.695-5.2734-16.105 0.56641-24.062 19.812-13.039 31.566l-364.77 16.188c-24.801 1.2773-23.027 38.547 1.6523 37.5l416.19-18.457c26.379 11.992 54.75 18.457 80.793 18.457h45.957v37.535c-0.019531 3.4102 0.89453 6.7383 2.6367 9.668l56.328 93.711c7.418 12.289 24.824 12.086 32.117 0l56.18-93.711c1.7852-2.918 2.7656-6.2422 2.7852-9.668v-37.391h56.145c30.84 0 56.328-25.105 56.328-56.359 0-14.543-5.3086-27.57-14.32-37.5 9-9.9688 14.32-23.035 14.32-37.574 0-14.523-5.293-27.539-14.285-37.461 8.9805-9.9648 14.285-23.016 14.285-37.535 0-14.527-5.293-27.539-14.285-37.461 8.9805-9.9648 14.285-23.016 14.285-37.535 0-31.254-25.484-56.176-56.328-56.176h-2.3438c7.7422-24.43-2.543-51.504-24.723-65.551-2.6094-1.6602-14.121-8.9414-29.078-18.164l-0.007813-178.81c0-30.836-24.828-56.176-56.328-56.176zm0 37.5h37.539c10.711 0 18.824 8.4766 18.824 18.676v37.5h-75.039v-37.5c0-10.199 7.9648-18.676 18.676-18.676zm-18.676 93.711h75.043v81.188c-17.09-9.9922-34.922-20.016-50.688-27.758-8.0078-3.9336-15.434-7.3125-22.266-9.8516-0.72266-0.28516-1.3828-0.42578-2.082-0.70703zm7.7266 192.66 42.922 14.867c-8.2461 9.7422-13.148 22.305-13.148 36.145 0 14.52 5.3789 27.57 14.355 37.535-8.9883 9.9258-14.355 22.938-14.355 37.461 0 14.52 5.3789 27.57 14.355 37.535-8.9883 9.9258-14.355 22.938-14.355 37.461 0 14.535 5.3945 27.605 14.395 37.574-9.0078 9.9258-14.395 22.953-14.395 37.5 0 24.566 15.82 45.152 37.539 52.914v35.703l-37.504 62.547-37.539-62.547v-354.59c2.3867-3.2969 6.1445-7.6719 7.7266-10.105zm86.102 32.336h74.859c10.715 0 18.824 8.4805 18.824 18.676s-8.1094 18.82-18.824 18.82l-74.859 0.003907c-10.715 0-18.824-8.6289-18.824-18.82 0-10.195 8.1094-18.676 18.824-18.676zm262.48 18.75c-31.285 0-56.363 25.477-56.363 56.32s25.152 56.176 56.363 56.176 56.18-25.332 56.18-56.176-24.895-56.32-56.18-56.32zm0 37.5c10.211 0 18.68 8.2461 18.68 18.824 0 10.578-8.5391 18.676-18.68 18.676s-18.824-8.0977-18.824-18.676c0-10.578 8.6133-18.824 18.824-18.824zm-262.52 18.785h74.934c10.711 0.0625 18.789 8.4844 18.789 18.641 0 10.195-8.1094 18.82-18.824 18.82h-74.859c-10.715 0-18.824-8.6289-18.824-18.82 0-10.156 8.0781-18.574 18.789-18.641zm0 74.996h74.934c10.711 0.0625 18.789 8.4844 18.789 18.641 0 10.195-8.1094 18.824-18.824 18.824l-74.859-0.003906c-10.715 0-18.824-8.6289-18.824-18.824 0-10.156 8.0781-18.574 18.789-18.641zm0.039062 75.035h74.859c10.711 0 18.824 8.4805 18.824 18.676 0 10.195-8.1094 18.82-18.824 18.82l-74.859 0.003906c-10.715 0-18.824-8.6289-18.824-18.82 0-10.195 8.1094-18.676 18.824-18.676zm-313.32 125.68 14.867 14.867-14.941 14.906c-17.719 17.715 8.8359 44.266 26.551 26.551l14.867-14.906 14.867 14.906c17.719 17.715 44.27-8.832 26.551-26.551l-14.941-14.906 14.867-14.867c12.098-11.91 3.3867-32.488-13.586-32.113-4.8633 0.14062-9.4648 2.1836-12.855 5.6758l-14.906 14.867-14.906-14.867c-3.3945-3.4883-7.9883-5.5273-12.855-5.6758-16.973-0.35547-25.688 20.207-13.586 32.117z"/>
</svg>
