<?xml version="1.0" encoding="UTF-8"?>
<svg width="1200pt" height="1200pt" version="1.1" viewBox="0 0 1200 1200" xmlns="http://www.w3.org/2000/svg">
 <path d="m281.36 759.38c-54.367 0-96.039 17.457-117.36 49.152-17.484 26.016-19.219 59.758-4.8555 95.008 1.4414 3.5352 4.8711 5.8398 8.6797 5.8398 71.961 0 122.9-10.086 122.9-140.62 0.007812-5.1758-4.1914-9.375-9.3672-9.375zm-107.07 131.23c-9.6758-27.375-7.8828-52.031 5.2773-71.617 16.539-24.59 49.105-38.867 92.324-40.668-1.9844 103.35-36.934 111.83-97.602 112.29z"/>
 <path d="m441.05 744.16c14.363-35.258 12.648-69-4.8555-95.016-21.309-31.688-62.98-49.145-117.34-49.145-5.1836 0-9.375 4.1992-9.375 9.375 0 130.54 50.934 140.62 122.89 140.62 3.8047 0 7.2461-2.3047 8.6797-5.8398zm-15.129-12.93c-60.664-0.44922-95.605-8.9336-97.594-112.29 43.199 1.8008 75.777 16.086 92.316 40.668 13.16 19.586 14.953 44.242 5.2773 71.617z"/>
 <path d="m384.35 834.38c-3.8516 0.054688-7.2852 2.4766-8.6445 6.0859-15.844 42.262-14.23 80.465 4.5547 107.58 16.238 23.438 44.371 36.336 79.219 36.336 3.7227 0 7.0977-2.2031 8.5859-5.6172 10.773-24.602 18.383-73.883-4.8359-108.84-10.996-16.574-33.457-35.887-78.879-35.539zm68.801 131.09c-25.82-1.3398-45.602-10.988-57.469-28.117-14.324-20.664-15.898-50.371-4.5938-84.168 26.184 0.91797 45.188 10.023 56.531 27.102 17.27 26.008 13.07 63.574 5.5312 85.184z"/>
 <path d="m733.41 753.52c-36.508 45.637-58.305 93.383-58.305 127.73 0 31.613 20.531 65.625 65.625 65.625s65.625-34.012 65.625-65.625c0-34.352-21.797-82.098-58.305-127.73-3.5586-4.4453-11.07-4.4453-14.641 0zm7.332 174.61c-34.594 0-46.875-25.246-46.875-46.875 0-21.852 12.477-60.711 46.875-106.57 34.398 45.863 46.875 84.723 46.875 106.57 0 21.629-12.281 46.875-46.875 46.875z"/>
 <path d="m1003.4 1031.2c0 5.1758 4.2461 9.375 9.4219 9.375 5.1836 0 9.375-4.1992 9.375-9.375 0-5.1758-4.1914-9.375-9.375-9.375h-0.09375c-5.1719 0-9.3281 4.1992-9.3281 9.375z"/>
 <path d="m1162.6 1096.9h-32.598c-2.9258-12.141-7.2109-23.23-13.117-32.934 16.566-5.7109 34.18-16.801 52.426-35.523 3.5547-3.6367 3.5547-9.4414 0-13.086-17.887-18.355-36.57-30.414-55.5-36.227 17.016-26.852 19.539-56.148 20.43-66.723l0.1875-2.1094c0.27344-2.7852-0.71094-5.5508-2.6992-7.5391-1.9766-1.9766-4.7422-2.9531-7.5391-2.6992l-2.1172 0.1875c-10.574 0.89844-39.871 3.4141-66.711 20.418-5.8047-18.93-17.867-37.602-36.227-55.492-3.6484-3.543-9.4492-3.543-13.086 0-18.355 17.887-30.422 36.562-36.227 55.492-1.3594-0.86328-2.7266-1.6797-4.0859-2.4648l-0.003906-233.8c0-71.699-43.648-122.87-119.77-140.39-0.65625-0.14844-0.96484-0.32031-1.0117-0.36719-0.32812-0.34766-1.0859-1.9492-1.0859-9.2422v-10.621c21.422-4.8281 37.5-23.926 37.5-46.781v-72.695c0-24.375-18.32-44.352-41.887-47.41-4.1914-5.3164-8.3828-10.172-12.16-14.398-12.617-14.195-20.953-23.57-20.953-42.469v-112.5c0-36.188-29.445-65.625-65.625-65.625-36.18 0-65.625 29.438-65.625 65.625v112.5c0 18.898-8.3438 28.273-20.953 42.469-3.7773 4.2383-7.9688 9.0859-12.16 14.398-23.559 3.0547-41.887 23.023-41.887 47.41v72.695c0 22.855 16.078 41.961 37.5 46.781v10.621c0 7.3125-0.75781 8.8984-1.0859 9.2422-0.054687 0.046874-0.35547 0.21484-1.0117 0.36719-25.641 5.8984-47.504 15.703-65.344 28.742-14.203-14.289-29.973-29.164-48.195-45.367-73.379-65.23-72.777-104.95-72.008-155.25 0.074219-5.2031 0.16016-10.48 0.16016-15.871l-0.007813-93.738c0-17.645 3.5078-19.398 22.941-29.109 16.555-8.2773 33.309-26.699 33.309-45.891 0-27.16-18.836-56.25-46.875-56.25h-9.918l9.8359-73.762c0.027344-0.41406 0.054687-0.82422 0.054687-1.2383 0-22.66-12.309-46.875-46.875-46.875h-112.5c-34.566 0-46.875 24.215-46.875 46.875 0 0.41406 0.027344 0.82422 0.085938 1.2383l9.832 73.762h-9.918c-28.039 0-46.875 29.09-46.875 56.25 0 19.191 16.754 37.613 33.309 45.891 19.434 9.7227 22.941 11.477 22.941 29.109v93.75c0 57.617 0 99.242-72.254 171.5l-2.8789 2.8672c-81.891 81.883-159.24 159.22-159.24 275.64 0 102.15 43.555 185.88 125.99 242.14 0.55469 0.375 1.2188 0.77734 1.9883 1.2266 4.2734 2.5234 7.9688 4.6953 3.75 16.172l-9.375 28.125c-0.11328 0.32812-0.19531 0.65625-0.27344 0.98438-0.14062 0.63672-0.1875 1.3203-0.30078 1.9766l-112.41 0.003906c-15.508 0-28.125 12.617-28.125 28.125v37.5c0 15.508 12.617 28.125 28.125 28.125h1125c15.508 0 28.125-12.617 28.125-28.125v-37.5c0-15.508-12.621-28.125-28.125-28.125zm-51.75 0h-51.477c0.027343-11.953-2.4375-23.859-7.3867-35.625 10.836 4.5938 22.93 7.6406 36.027 7.6406 3.0273 0 6.1133-0.16016 9.2422-0.50781 5.9258 8.1953 10.527 17.672 13.594 28.492zm-196.45 0c3.0742-10.848 7.6875-20.336 13.633-28.527 3.2734 0.38281 6.543 0.58984 9.8164 0.58984 11.773 0 23.539-2.5391 35.277-7.5391-4.9023 11.711-7.3398 23.57-7.3125 35.477zm-363.04 0c-11.023-16.82-16.895-36.148-16.895-56.25v-46.875h347.54c-7.7539 5.1836-15.664 11.492-23.738 19.293l-2.0547 1.9609c-1.9141 1.7734-3 4.2656-3 6.8711 0 2.6172 1.0859 5.1016 3 6.8828l2.0547 1.9492c16.633 16.07 33.375 27.047 50.137 32.98-5.9727 9.7578-10.293 20.934-13.238 33.18h-343.8zm-35.645-412.5v319.12c-17.672 8.3516-37.508 14.793-57.938 18.535-66.852 12.227-133.24 12.227-202.94-0.007813-44.203-7.7617-83.277-27.195-107.21-53.344-41.316-45.141-63.16-101.01-63.16-161.55 0-95.062 65.992-163.3 135.84-235.55l11.539-11.953c1.3867-1.4453 2.8594-2.8789 4.3047-4.293 0.75-0.74219 1.5078-1.4727 2.2422-2.2031h235.93c0.38281 0.39453 0.76953 0.78906 1.1523 1.1797 1.8086 1.875 3.6562 3.7695 5.7383 5.6992 21.355 19.715 38.258 36.367 52.969 52.023-12.074 20.66-18.469 44.988-18.469 72.344zm515.61 346.88c0 4.5391-1.6875 8.6523-4.3789 11.898 0 0.007812-0.007812 0.007812-0.019531 0.019531-3.4414 4.1445-8.5703 6.8359-14.352 6.8359-10.34 0-18.75-8.4102-18.75-18.75s8.4102-18.75 18.75-18.75c10.344-0.003906 18.75 8.4062 18.75 18.746zm-56.25 0c0 2.6523 0.28906 5.2305 0.81641 7.7266-46.332 26.25-83.043-1.7344-99.703-17.102 17.645-16.293 56.84-46.211 106.46-12.992-4.6953 6.2617-7.5742 13.957-7.5742 22.367zm9.4688 65.625c-0.019531-11.25 2.8125-22.566 8.4375-33.797 5.7188 3.5352 12.395 5.6719 19.594 5.6719 7.2109 0 13.883-2.1367 19.602-5.6797 5.625 11.25 8.4648 22.555 8.4453 33.805zm64.707-57.883c0.52344-2.5039 0.82422-5.0898 0.82422-7.7422 0-8.3906-2.8672-16.07-7.5469-22.32 18.242-12.289 36.562-17.109 54.852-14.484 0.13281 0.007813 0.26172 0.066407 0.39453 0.066407 0.027344 0 0.046875-0.019531 0.074219-0.019531 17.156 2.5859 34.285 11.68 51.289 27.375-32.957 30.402-66.52 36.156-99.887 17.125zm65.383-119.17c-1.7422 14.008-6.4688 36.254-21.168 55.539-13.93-0.95703-27.883 1.4531-41.672 7.2852 5.832-13.781 8.2578-27.742 7.3047-41.664 19.281-14.703 41.539-19.418 55.535-21.16zm-102.06-34.512c33.637 36.449 37.117 73.445 10.48 110.12-3.3477-0.98438-6.8164-1.6797-10.48-1.6797-3.6641 0-7.1328 0.69531-10.48 1.6797-26.633-36.684-23.156-73.668 10.48-110.12zm-39.262 97.23c-12.543-5.2891-26.504-8.3359-41.645-7.2109-14.691-19.273-19.398-41.492-21.141-55.5 13.996 1.7422 36.234 6.4609 55.52 21.148-0.95703 13.887 1.4648 27.809 7.2656 41.562zm-70.207-82.312-2.1172-0.1875c-2.7578-0.26172-5.5508 0.72266-7.5391 2.6992-1.9766 1.9766-2.9727 4.7422-2.6992 7.5273l0.1875 2.0703c0.84375 10.039 3.1484 36.965 17.945 62.652l-374.42 0.003907v-253.12h412.5v187.53c-19.043-7.0586-36.273-8.5312-43.855-9.1758zm-143.64-375.23v178.12h-37.5v-178.12zm187.5 159.38v18.75h-168.75v-178.12h46.875v9.375c0 7.8086 0 24.055 16.641 27.891 66.879 15.383 105.23 59.887 105.23 122.11zm-253.12-384.38v-112.5c0-25.848 21.027-46.875 46.875-46.875 25.848 0 46.875 21.027 46.875 46.875v112.5c0 26.035 12.488 40.07 25.695 54.93 0.38281 0.42969 0.77734 0.89062 1.1641 1.3203h-147.47c0.38281-0.42969 0.77734-0.89062 1.1641-1.3203 13.207-14.859 25.695-28.895 25.695-54.93zm-75 176.97v-72.695c0-16.145 13.133-29.277 29.277-29.277h185.2c16.145 0 29.277 13.133 29.277 29.277v72.695c0 16.145-13.133 29.277-29.277 29.277h-185.2c-16.145 0-29.277-13.133-29.277-29.277zm20.848 85.293c16.641-3.8359 16.641-20.082 16.641-27.891v-9.375h46.875v178.12h-168.75v-18.75c0.011719-62.223 38.363-106.73 105.23-122.11zm-367.72-506.61c0.14844-12.703 5.2305-27.535 28.125-27.535h112.5c22.883 0 27.965 14.832 28.125 27.535l-10.09 75.59h-148.58zm156.17 94.34-6.0859 45.637c-0.71094 5.2617-5.4727 10.613-9.457 10.613h-112.5c-3.9844 0-8.7656-5.3516-9.4609-10.613l-6.082-45.637zm-262.41 883.46-0.97656-0.58203c-77.055-52.59-117.78-130.96-117.78-226.63 0-108.66 71.258-179.89 153.75-262.37l2.8789-2.8789c77.746-77.746 77.746-124.97 77.746-184.75v-93.75c0-27.984-10.809-34.641-33.309-45.891-11.277-5.6445-22.941-18.066-22.941-29.109 0-17.738 11.551-37.5 28.125-37.5h12.422l6.4141 48.102c1.7031 12.938 12.918 26.898 28.039 26.898h112.5c15.102 0 26.316-13.949 28.039-26.887l6.4141-48.113h12.414c16.574 0 28.125 19.762 28.125 37.5 0 11.043-11.664 23.477-22.941 29.109-22.492 11.242-33.309 17.887-33.309 45.891v93.75c0 5.2891-0.085938 10.473-0.16016 15.582-0.77734 50.711-1.5 98.617 78.309 169.55 17.43 15.488 32.551 29.727 46.172 43.367-3.7891 3.6562-7.2461 7.5391-10.52 11.57-14.391-15.148-30.816-31.266-51.188-50.09-1.8203-1.6797-3.4141-3.3281-4.9883-4.9609-1.3984-1.4453-2.7852-2.8672-4.2461-4.2852-1.7422-1.668-4.0703-2.6055-6.4961-2.6055h-243.75c-2.5781 0-5.0547 1.0703-6.8359 2.9453-1.4141 1.5078-2.9805 3.0391-4.5664 4.5859-1.6016 1.5547-3.2148 3.1211-4.7344 4.707l-11.504 11.914c-69.375 71.746-141.12 145.93-141.12 248.59 0 65.305 23.551 125.55 68.09 174.21 36.508 39.883 89.465 54.18 117.79 59.156 35.961 6.3086 71.062 9.4688 105.82 9.4688 34.773 0 69.195-3.1602 103.73-9.4766 18.977-3.4688 37.527-9.1016 54.562-16.367v16.516c0 19.781 4.7891 38.926 13.883 56.25h-360.24l8.2969-24.891c9.5234-25.883-6.6172-35.398-11.914-38.523zm1006.2 129.04c0 5.1641-4.1992 9.375-9.375 9.375h-1125c-5.1758 0-9.375-4.2109-9.375-9.375v-37.5c0-5.1641 4.1992-9.375 9.375-9.375h121 0.16797 1003.8c5.1758 0 9.375 4.2109 9.375 9.375v37.5z"/>
</svg>
