<?xml version="1.0" encoding="UTF-8"?>
<svg width="1200pt" height="1200pt" version="1.1" viewBox="0 0 1200 1200" xmlns="http://www.w3.org/2000/svg">
 <path d="m479.23 700.75c-116.81 116.81-29.285 154.86-5.4922 162.57v10.863c-0.03125 17.477 6.9062 34.273 19.246 46.641 12.367 12.367 29.137 19.305 46.613 19.305 17.504 0 34.273-6.9375 46.641-19.305 12.34-12.367 19.277-29.168 19.246-46.641v-88.949c16.059 24.234 46.082 35.098 73.918 26.715 27.836-8.3828 46.879-34.035 46.879-63.086v-10.863c23.762-7.7031 111.32-45.758-5.5195-162.57-116.81 116.81-29.285 154.86-5.5195 162.57v10.863c0 30.316-24.562 54.879-54.879 54.879-30.289 0-54.879-24.562-54.879-54.879v-216.38c16.059 24.234 46.082 35.098 73.918 26.715 27.836-8.3828 46.879-34.035 46.879-63.086v-10.184c23.762-7.7031 111.32-45.758-5.5195-162.57-116.81 116.81-29.285 154.86-5.5195 162.57v10.184c0 30.289-24.562 54.879-54.879 54.879-30.289 0-54.879-24.59-54.879-54.879v-236.19h-11.012v361.5c-0.03125 30.289-24.59 54.82-54.848 54.82-30.289 0-54.848-24.531-54.879-54.82v-10.184c23.762-7.7031 111.32-45.758-5.5195-162.57-116.81 116.81-29.285 154.86-5.4922 162.57v10.184c-0.03125 29.047 19.012 54.699 46.848 63.086 27.836 8.3828 57.859-2.4805 73.887-26.688v216.35c0.03125 14.555-5.7578 28.547-16.031 38.848-10.301 10.301-24.266 16.09-38.82 16.09-14.582 0-28.547-5.7852-38.848-16.09-10.273-10.301-16.059-24.293-16.031-38.848v-10.863c23.762-7.7031 111.29-45.758-5.5195-162.57z" fill="#4c25e0"/>
</svg>
